#!OML:ASF E:\Style3\Style3.ASF
:FULLY-SPECIFIED
:DEGREES
2807
root 0.0516937 17.7864 0.531015 -170.803 79.8774 -181.333
lowerback -8.32905 -1.54486 -2.01147
upperback -8.07932 -1.53738 1.24587
thorax -3.63901 -0.471653 2.33042
lowerneck 1.51479 -6.7242 -10.1719
upperneck 10.3028 -9.59927 9.81084
head 3.77855 -4.71975 4.32446
rclavicle 4.15957e-014 1.07344e-014
rhumerus 63.5391 -19.2385 -28.4419
rradius 111.029
rwrist -82.4149
rhand 17.502 13.7313
rfingers 7.12502
rthumb 42.2013 -10.791
lclavicle 4.15957e-014 1.07344e-014
lhumerus 66.2826 27.3463 38.5117
lradius 104.08
lwrist 88.8983
lhand 9.00634 23.6267
lfingers 7.12502
lthumb 34.1833 50.3696
rfemur -12.3176 8.97046 16.3623
rtibia 19.4924
rfoot -14.6473 -26.3174
rtoes -8.90895
lfemur -5.05636 -21.8609 -12.94
ltibia -1.11319e-014
lfoot -6.04137 16.628
ltoes -17.9817
2808
root 0.0552338 17.786 0.532119 -170.64 79.8344 -181.193
lowerback -8.39491 -1.54291 -2.00449
upperback -8.08295 -1.53288 1.21943
thorax -3.60754 -0.47019 2.29795
lowerneck 1.56937 -6.65937 -10.0208
upperneck 10.1459 -9.51543 9.88088
head 3.70906 -4.67316 4.33011
rclavicle -1.63003e-014 -4.77083e-015
rhumerus 63.634 -19.4244 -28.6811
rradius 111.161
rwrist -82.4508
rhand 17.1712 13.5705
rfingers 7.12502
rthumb 41.8913 -11.0559
lclavicle -1.63003e-014 -4.77083e-015
lhumerus 66.442 27.2058 38.5581
lradius 103.873
lwrist 88.8032
lhand 9.06454 23.5673
lfingers 7.12502
lthumb 34.2386 50.2978
rfemur -12.3237 8.99658 16.3958
rtibia 19.4975
rfoot -14.7722 -26.3414
rtoes -8.73307
lfemur -5.07503 -21.8941 -12.8875
ltibia -6.36111e-015
lfoot -6.21658 16.6161
ltoes -17.3355
2809
root 0.0572051 17.7858 0.532567 -170.881 79.8111 -181.433
lowerback -8.38026 -1.5563 -2.09229
upperback -8.09469 -1.54591 1.2171
thorax -3.62549 -0.471935 2.34453
lowerneck 1.56159 -6.59394 -9.92134
upperneck 10.0791 -9.42314 9.87218
head 3.67539 -4.62487 4.3169
rclavicle 1.12313e-014 2.3059e-014
rhumerus 63.766 -19.5723 -28.8803
rradius 111.296
rwrist -82.398
rhand 16.755 13.4891
rfingers 7.12502
rthumb 41.501 -11.2659
lclavicle 1.12313e-014 2.3059e-014
lhumerus 66.4413 27.1315 38.5321
lradius 103.729
lwrist 88.9433
lhand 9.10015 23.3431
lfingers 7.12502
lthumb 34.2724 50.066
rfemur -12.3055 8.987 16.3504
rtibia 19.4956
rfoot -14.8672 -26.3024
rtoes -8.41837
lfemur -5.07477 -21.9261 -12.9361
ltibia 3.18055e-015
lfoot -6.18211 16.6522
ltoes -17.5437
2810
root 0.0582574 17.7864 0.532981 -170.967 79.7416 -181.531
lowerback -8.36948 -1.5755 -2.12821
upperback -8.12364 -1.56767 1.21602
thorax -3.66013 -0.479385 2.36296
lowerneck 1.57538 -6.49332 -9.90251
upperneck 9.99417 -9.29134 9.95886
head 3.6366 -4.55733 4.3491
rclavicle 1.70955e-014 1.49089e-014
rhumerus 63.8307 -19.6856 -29.04
rradius 111.473
rwrist -82.385
rhand 16.2225 13.4229
rfingers 7.12502
rthumb 41.0011 -11.4931
lclavicle 1.70955e-014 1.49089e-014
lhumerus 66.4061 27.0811 38.5142
lradius 103.667
lwrist 89.2423
lhand 9.14044 23.3445
lfingers 7.12502
lthumb 34.3106 50.0587
rfemur -12.2884 8.93653 16.3441
rtibia 19.4906
rfoot -14.9343 -26.3252
rtoes -8.21847
lfemur -5.11211 -21.9965 -12.9378
ltibia 2.38542e-014
lfoot -6.09429 16.6732
ltoes -17.8949
2811
root 0.061154 17.7861 0.533193 -170.675 79.6493 -181.257
lowerback -8.40648 -1.57377 -2.04669
upperback -8.14409 -1.56671 1.18998
thorax -3.66389 -0.48218 2.28967
lowerneck 1.51791 -6.39256 -9.87351
upperneck 9.98375 -9.16337 10.1133
head 3.63453 -4.48559 4.3974
rclavicle 6.36111e-015 4.57205e-015
rhumerus 63.8193 -19.827 -29.1331
rradius 111.64
rwrist -82.4028
rhand 15.7115 13.3127
rfingers 7.12502
rthumb 40.5209 -11.7541
lclavicle 6.36111e-015 4.57205e-015
lhumerus 66.4765 26.9542 38.5615
lradius 103.564
lwrist 89.406
lhand 9.20308 23.5177
lfingers 7.12502
lthumb 34.3701 50.2185
rfemur -12.2793 8.85757 16.417
rtibia 19.4696
rfoot -14.9034 -26.3628
rtoes -8.34795
lfemur -5.14534 -22.0751 -12.855
ltibia -4.77083e-015
lfoot -6.03334 16.6656
ltoes -18.2158
2812
root 0.064905 17.7859 0.533306 -170.551 79.5864 -181.127
lowerback -8.4226 -1.56256 -2.0083
upperback -8.15211 -1.55269 1.16705
thorax -3.66568 -0.477016 2.24481
lowerneck 1.4677 -6.31192 -9.87189
upperneck 9.92362 -9.06056 10.2616
head 3.61993 -4.42877 4.4474
rclavicle -1.44616e-014 -1.59028e-015
rhumerus 63.8509 -19.9977 -29.1946
rradius 111.718
rwrist -82.4129
rhand 15.1347 13.3271
rfingers 7.12502
rthumb 39.9785 -11.9055
lclavicle -1.44616e-014 -1.59028e-015
lhumerus 66.5776 26.7816 38.6681
lradius 103.384
lwrist 89.4339
lhand 9.42319 23.6932
lfingers 7.12502
lthumb 34.5791 50.3466
rfemur -12.2333 8.80315 16.4593
rtibia 19.4301
rfoot -14.9008 -26.3825
rtoes -8.41953
lfemur -5.1358 -22.1323 -12.8149
ltibia -9.54166e-015
lfoot -6.10675 16.6513
ltoes -17.9265
2813
root 0.0684496 17.786 0.533855 -170.399 79.5523 -180.971
lowerback -8.44144 -1.55227 -1.97249
upperback -8.16254 -1.53962 1.14375
thorax -3.6684 -0.472143 2.20095
lowerneck 1.4498 -6.23644 -9.80547
upperneck 9.85839 -8.9599 10.3282
head 3.59228 -4.37452 4.4626
rclavicle 9.93923e-015 -1.0138e-014
rhumerus 63.8601 -20.162 -29.2905
rradius 111.842
rwrist -82.5748
rhand 14.4208 13.236
rfingers 7.12502
rthumb 39.3061 -12.1956
lclavicle 9.93923e-015 -1.0138e-014
lhumerus 66.622 26.6442 38.6804
lradius 103.207
lwrist 89.5334
lhand 9.5376 23.6112
lfingers 7.12502
lthumb 34.6876 50.2396
rfemur -12.195 8.80913 16.5013
rtibia 19.391
rfoot -14.8819 -26.4229
rtoes -8.5384
lfemur -5.1281 -22.1603 -12.7769
ltibia 1.27222e-014
lfoot -6.13351 16.6341
ltoes -17.7185
2814
root 0.0726523 17.7861 0.53494 -170.34 79.5173 -180.919
lowerback -8.47215 -1.57065 -1.99339
upperback -8.18296 -1.55993 1.15601
thorax -3.67129 -0.479747 2.22391
lowerneck 1.44684 -6.12519 -9.78085
upperneck 9.79809 -8.81241 10.406
head 3.56102 -4.29863 4.4909
rclavicle -3.47873e-016 -1.98785e-015
rhumerus 63.8679 -20.2427 -29.3941
rradius 111.919
rwrist -82.6001
rhand 13.8804 13.3453
rfingers 7.12502
rthumb 38.7967 -12.2326
lclavicle -3.47873e-016 -1.98785e-015
lhumerus 66.5336 26.5238 38.6021
lradius 103.087
lwrist 89.5997
lhand 9.49684 23.2281
lfingers 7.12502
lthumb 34.649 49.8654
rfemur -12.1678 8.7872 16.5239
rtibia 19.365
rfoot -14.8504 -26.4253
rtoes -8.6604
lfemur -5.13123 -22.1925 -12.7599
ltibia 3.18055e-015
lfoot -6.15115 16.6528
ltoes -17.8164
2815
root 0.0752145 17.7858 0.536706 -170.385 79.4935 -181.017
lowerback -8.50911 -1.58698 -2.0514
upperback -8.21223 -1.57464 1.17085
thorax -3.67953 -0.482149 2.27063
lowerneck 1.36191 -6.00898 -9.71986
upperneck 9.74966 -8.65422 10.4876
head 3.54424 -4.21375 4.51216
rclavicle 1.0138e-014 -5.96354e-016
rhumerus 63.8704 -20.3643 -29.4268
rradius 111.934
rwrist -82.5699
rhand 13.5507 13.5033
rfingers 7.12502
rthumb 38.4857 -12.1621
lclavicle 1.0138e-014 -5.96354e-016
lhumerus 66.4374 26.4096 38.4931
lradius 102.989
lwrist 89.6909
lhand 9.35853 22.8248
lfingers 7.12502
lthumb 34.5177 49.4921
rfemur -12.1973 8.84378 16.5012
rtibia 19.3423
rfoot -14.8279 -26.4961
rtoes -8.48895
lfemur -5.18924 -22.2115 -12.7469
ltibia -3.18055e-015
lfoot -6.25361 16.6573
ltoes -17.5852
2816
root 0.0788799 17.7855 0.538006 -170.237 79.4764 -180.879
lowerback -8.5673 -1.59484 -2.07323
upperback -8.20545 -1.58149 1.20118
thorax -3.63866 -0.483989 2.31271
lowerneck 1.35667 -5.89048 -9.51088
upperneck 9.58524 -8.48203 10.43
head 3.46642 -4.12578 4.46995
rclavicle 2.90226e-014 1.66979e-014
rhumerus 63.9003 -20.4905 -29.4772
rradius 112.049
rwrist -82.6761
rhand 12.9403 13.4263
rfingers 7.12502
rthumb 37.9095 -12.3975
lclavicle 2.90226e-014 1.66979e-014
lhumerus 66.3814 26.3032 38.4765
lradius 102.94
lwrist 89.7782
lhand 9.15037 22.6795
lfingers 7.12502
lthumb 34.3201 49.3916
rfemur -12.192 8.86294 16.5379
rtibia 19.3396
rfoot -14.8553 -26.5224
rtoes -8.43186
lfemur -5.19982 -22.2203 -12.7025
ltibia 2.70347e-014
lfoot -6.27362 16.6378
ltoes -17.6062
2817
root 0.0807802 17.785 0.538325 -170.49 79.4524 -181.146
lowerback -8.60184 -1.6118 -2.15568
upperback -8.19441 -1.59931 1.19925
thorax -3.60511 -0.489712 2.3551
lowerneck 1.3335 -5.75537 -9.2614
upperneck 9.43836 -8.28074 10.2842
head 3.38943 -4.02469 4.39432
rclavicle 2.80783e-014 -1.78906e-015
rhumerus 63.9197 -20.6387 -29.5154
rradius 112.206
rwrist -82.7953
rhand 12.1414 13.358
rfingers 7.12502
rthumb 37.1545 -12.6663
lclavicle 2.80783e-014 -1.78906e-015
lhumerus 66.3247 26.2135 38.4998
lradius 102.951
lwrist 89.9156
lhand 8.87973 22.8682
lfingers 7.12502
lthumb 34.063 49.6379
rfemur -12.203 8.86478 16.4861
rtibia 19.3519
rfoot -14.9309 -26.5462
rtoes -8.18509
lfemur -5.20815 -22.251 -12.7434
ltibia -6.36111e-015
lfoot -6.33158 16.6013
ltoes -17.43
2818
root 0.082261 17.7855 0.539248 -170.845 79.4406 -181.513
lowerback -8.5924 -1.61703 -2.24615
upperback -8.20658 -1.60135 1.18061
thorax -3.62154 -0.486208 2.38671
lowerneck 1.27069 -5.59577 -9.16075
upperneck 9.33674 -8.06056 10.334
head 3.34455 -3.91064 4.40266
rclavicle 1.55052e-014 8.15017e-015
rhumerus 63.883 -20.7952 -29.5038
rradius 112.328
rwrist -82.6723
rhand 11.3728 13.3598
rfingers 7.12502
rthumb 36.4272 -12.8506
lclavicle 1.55052e-014 8.15017e-015
lhumerus 66.2959 26.0618 38.5386
lradius 102.981
lwrist 90.005
lhand 8.60595 23.2073
lfingers 7.12502
lthumb 33.803 50.0346
rfemur -12.2062 8.86488 16.4148
rtibia 19.3577
rfoot -14.9642 -26.5517
rtoes -8.33751
lfemur -5.20794 -22.2741 -12.8126
ltibia 9.54166e-015
lfoot -6.30836 16.615
ltoes -17.4972
